<svg id="圖層_1" data-name="圖層 1" xmlns="http://www.w3.org/2000/svg" viewBox="0 0 788 147"><defs><style>.cls-1{stroke:#000;stroke-miterlimit:10;stroke-width:3px;}</style></defs><title>書裡logo</title><path class="cls-1" d="M28.13,26.71q3.74,1,12.1,1h25a96.16,96.16,0,0,0-.77-11.59q5.4,1,8.75,1.81c2.15.25,3.22.81,3.22,1.67,0,.69-1.07,1.37-3.22,2.06-1.54.43-2.31,1.28-2.31,2.57v3.48h29.21A16.1,16.1,0,0,1,102.9,25c.6-.51,1-.77,1.16-.77q.9,0,4.12,2.58c2,1.28,3,2.4,3,3.34,0,.34-.61.86-1.81,1.55-1.46.6-2.18,1.28-2.18,2.05q0,3.73.12,7.08h6.31a43.33,43.33,0,0,0,3.09-3.73c1-1.2,1.84-1.8,2.44-1.8s2.15,1,4.38,3q3.74,3.35,3.73,4c0,1.37-.86,2.06-2.57,2.06H107.27c.18,4.89.43,9.56.78,14a2.22,2.22,0,0,1-.65,1.29,7.13,7.13,0,0,1-2.83,1.29c-1.63,0-2.44-.86-2.44-2.58v-1H70.86V67.89H103a22.94,22.94,0,0,0,2.7-3.22c1-1.2,1.8-1.8,2.32-1.8q1,0,4,2.83,3.6,3.09,3.6,3.73c0,1.37-.86,2.06-2.57,2.06H70.86v10h41.31a44.25,44.25,0,0,0,3-3.6c1-1.29,1.89-1.94,2.58-1.94s2,1,4.25,3c2.48,2.24,3.73,3.61,3.73,4.12,0,1.29-.82,1.93-2.45,1.93h-97q-8.11,0-11.07,1L13.07,80.5a61.62,61.62,0,0,0,13.13,1H65.32v-10H34.69q-8,0-11.06,1L21.7,67a69.42,69.42,0,0,0,13,.9H65.32V57.33h-23A65.64,65.64,0,0,0,27.1,58.88l-1.93-6.56q6.18,1.55,17.12,1.54h23V44.34H25.17q-8.1,0-11.07,1L12,39.83a61.62,61.62,0,0,0,13.13,1H65.32V31.21H40.23c-4.38,0-7.55.34-9.53,1Zm2.57,61.9a23.82,23.82,0,0,1,7.47,4.5H99.55a13.61,13.61,0,0,0,1.8-1.93c1.38-1.37,2.28-2.06,2.71-2.06q1,0,4.37,3.35c1.8,1.89,2.71,3.09,2.71,3.6s-.91,1.12-2.71,2.06c-1.2.86-1.8,1.5-1.8,1.93q0,15.45.52,29.21c0,.6-.65,1.12-1.93,1.55a14.24,14.24,0,0,0-1.68.51c-1.63,0-2.44-.69-2.44-2.06v-4H37.91l.26,4c0,.95-.86,1.63-2.58,2.06a9.65,9.65,0,0,1-2.44.52c-.95,0-1.42-.86-1.42-2.58l.52-7.59V101.09A48.26,48.26,0,0,0,30.7,88.61Zm7.08,18H101.1v-10H37.78Zm0,15.06H101.1V110.23H37.78ZM70.86,31.21v9.65h31.27V31.21Zm0,13.13v9.52h31.27V44.34Z"/><path class="cls-1" d="M140.73,38.29a130,130,0,0,0,14.68,1h17L174.45,37a3.15,3.15,0,0,1,2.06-1.29q1.29,0,4.63,3.74,3.35,4,3.35,4.89,0,1.54-4.25,1.8c-1.8.09-2.87.47-3.22,1.16a162.4,162.4,0,0,1-12.61,19.56v1.93q3.87,1.67,6.7,3.09A29.94,29.94,0,0,0,176,66.21a41.44,41.44,0,0,0,5-8.88c2.41,1.29,4.55,2.49,6.44,3.61.68.43,1,.9,1,1.41s-.69.78-1.8.78c-1.89.08-3,.34-3.22.77a40.88,40.88,0,0,1-6.05,5.66,38.84,38.84,0,0,1-4.89,3.09q6.43,3.48,9,6.43a10.46,10.46,0,0,1,3,7c0,2.06-.64,3.09-1.93,3.09q-1.55,0-4.25-4.37-3.6-6.57-13.9-14v45.94q0,6.82.52,12.61a1.84,1.84,0,0,1-1.42,1.8,14.65,14.65,0,0,1-3.09.78c-1,0-1.54-.69-1.54-2.06.08-5.75.26-10.13.51-13.13V72.91c-.85.94-1.67,1.8-2.44,2.57A102.12,102.12,0,0,1,140.22,90l-1.42-1.41a143,143,0,0,0,17.76-18.28q7.22-8.61,16.35-27.54h-17.5q-8.37,0-12.1,1Zm14.68-22.14a65.86,65.86,0,0,1,10.68,10.3c1.88,2.75,2.83,5,2.83,6.82a8.62,8.62,0,0,1-.52,3.35,2.79,2.79,0,0,1-1.93,1.15,2.67,2.67,0,0,1-2.57-2.06,49.68,49.68,0,0,0-3.6-9.52,61.77,61.77,0,0,0-5.92-8.49ZM190,22.2a19.87,19.87,0,0,1,7.34,4.51h43a15.22,15.22,0,0,0,1.8-1.93c1.37-1.38,2.28-2.06,2.7-2.06q1,0,4.38,3.34,2.7,2.84,2.7,3.74c0,.34-1,1-3,1.93-1.37.85-2.06,1.54-2.06,2.05q0,25.1.39,47.75c0,.6-.6,1.11-1.8,1.54a13,13,0,0,0-1.67.52c-1.64,0-2.45-.69-2.45-2.06v-4h-20.2v18h15.57a20,20,0,0,0,2.7-3.35c1-1.11,1.8-1.67,2.32-1.67q1,0,4,2.83,3.6,3.09,3.6,3.73c0,1.37-.82,2.06-2.45,2.06H221.17v22.52h21.62a34.07,34.07,0,0,0,3.08-3.86c1-1.37,1.85-2.06,2.45-2.06q1.16,0,4.5,3.09c2.75,2.49,4.12,3.94,4.12,4.37,0,1.38-.86,2.06-2.57,2.06H189.51q-8,0-11.07,1l-1.93-5.53a69.62,69.62,0,0,0,13,.9h26.64V99.16H201.09q-8,0-11.07.9L188,94.53a63.47,63.47,0,0,0,13.13,1h15.06v-18H197.36l.26,4.5c0,.95-.91,1.63-2.71,2.06a12.26,12.26,0,0,1-2.31.39c-1,0-1.55-.82-1.55-2.45l.52-7.59V34.81A48.84,48.84,0,0,0,190,22.2Zm7.08,27.67h19.05V30.18H197.1Zm0,24.07h19.05V53.35H197.1Zm24.07-43.76V49.87h20.2V30.18Zm0,23.17V73.94h20.2V53.35Z"/><path class="cls-1" d="M313.54,139.27h-3.81V15h3.81Z"/><path d="M403.75,121.08v4.24q-14.12-.52-18.56-.53l-20.47.53v-4.24c5.21-.08,8.39-.32,9.54-.69a4.39,4.39,0,0,0,2.38-1.56c.53-.88.87-3,1-6.43q.06-1.4.26-18.82V62.9q0-9-.19-17.63c-.14-4.2-.46-6.68-1-7.46a4.49,4.49,0,0,0-2.45-1.72c-1.12-.37-4.32-.61-9.57-.69V31.15q12.64.47,19.55.47,6.62,0,19.48-.47V35.4c-5.26.08-8.45.32-9.58.69a4.42,4.42,0,0,0-2.35,1.56c-.53.88-.86,3-1,6.43q-.07,1.32-.27,18.82V93.58q0,9,.2,17.56.19,6.3,1,7.49a4.47,4.47,0,0,0,2.45,1.76C395.3,120.76,398.49,121,403.75,121.08Z"/><path d="M409.18,125.32v-3.71l6.3-.06a4.93,4.93,0,0,0,2.15-.5,3,3,0,0,0,1.16-1.1,12,12,0,0,0,.93-4.71q0-.85.4-19V88.3q0-5.31-.2-11.41-.19-3.92-.63-4.65a2.67,2.67,0,0,0-1.49-1.09q-1.07-.36-8.62-.3V67.07q13.38-1.84,19.5-4.84a5.24,5.24,0,0,1,1.78-.66.9.9,0,0,1,.73.33,1.64,1.64,0,0,1,.26,1,8.53,8.53,0,0,1-.07,1.06Q431.19,66.35,431,74l12.34-10.54a30.15,30.15,0,0,1,10.29-2,24.34,24.34,0,0,1,10.19,2.19A17.85,17.85,0,0,1,471,69.2a18.91,18.91,0,0,1,3.22,8.36q.47,3,.46,16.65V106a95.4,95.4,0,0,0,.47,11.74,5.45,5.45,0,0,0,1,2.75,3.4,3.4,0,0,0,2.15,1l7.09.2v3.71c-4.33-.3-7.93-.46-10.8-.46-2.48,0-6.58.16-12.33.46q.93-16.36.93-20.67V93.51q0-10.4-.8-13.65a12,12,0,0,0-5.11-7.15A16.64,16.64,0,0,0,447.72,70a18,18,0,0,0-9.1,2.35,15.24,15.24,0,0,0-5.87,5.45Q431,80.87,431,88.17v8q.39,17.25.39,18.65a14.55,14.55,0,0,0,.8,4.84,2.82,2.82,0,0,0,.79,1,4.11,4.11,0,0,0,1.66.69q.4.07,7.29.2v3.71q-8.09-.45-14.62-.46Q421.77,124.86,409.18,125.32Z"/><path d="M494.94,125.59c.53-5.57.81-9.08.86-10.54q.39-14.37.4-16.9V68.66q0-11.05-.4-22.86-.27-7.95-.73-8.88A1.84,1.84,0,0,0,494,36q-1-.47-9.15-.46V31.62q15-1.86,20.81-4.64a3.48,3.48,0,0,1,1.33-.4.93.93,0,0,1,.73.3,1.23,1.23,0,0,1,.26.83,9,9,0,0,1-.13,1.32l-.07,2.19q-.33,11.87-.39,20.21l-.14,10.34V74.89L516.41,66a19.48,19.48,0,0,1,5.9-3,26,26,0,0,1,8.74-1.45A24.43,24.43,0,0,1,544,64.92a22.4,22.4,0,0,1,8.65,9.64,31.22,31.22,0,0,1,3,13.79,35.13,35.13,0,0,1-1.72,11.06,39,39,0,0,1-4.44,9.35A18.71,18.71,0,0,1,546.1,113l-9.68,7q-5.89,4.37-9.21,5.6a25,25,0,0,1-8.48,1.22,27.35,27.35,0,0,1-8.22-1.19,29.93,29.93,0,0,1-8-4.18l-5.37,5Zm12.32-42.75V107.7a14.49,14.49,0,0,0,.37,4.24,7.44,7.44,0,0,0,2.22,2.45,22.26,22.26,0,0,0,6.46,3.71,21.77,21.77,0,0,0,7.79,1.39q9.6,0,14.78-7.42T544,93.71a30.48,30.48,0,0,0-2.45-13,17.61,17.61,0,0,0-6.76-7.85,18.28,18.28,0,0,0-9.67-2.62,18.68,18.68,0,0,0-11.27,3.62A17.28,17.28,0,0,0,507.26,82.84Z"/><path d="M565.91,94.84q0-14.85,9.45-24.22t24.22-9.38q13.92,0,22.66,8.75T631,92.59a35.41,35.41,0,0,1-4.51,17.69,32,32,0,0,1-12.72,12.56,36.76,36.76,0,0,1-18.09,4.54,29.54,29.54,0,0,1-13-2.59A25.86,25.86,0,0,1,574,118.3a31.08,31.08,0,0,1-5-8A39.31,39.31,0,0,1,565.91,94.84Zm12.53-4.9a53.44,53.44,0,0,0,2.72,16.56q2.72,8.43,7.85,12.3a18.14,18.14,0,0,0,11.16,3.87A16.2,16.2,0,0,0,613,116.58q5.18-6.1,5.17-18.76a48.7,48.7,0,0,0-3.08-18.19Q612,72,607.27,68.83a18.76,18.76,0,0,0-10.54-3.15,16.6,16.6,0,0,0-13.22,5.9Q578.44,77.48,578.44,89.94Z"/><path d="M640,94.84q0-14.85,9.45-24.22t24.22-9.38q13.92,0,22.66,8.75t8.75,22.6a35.41,35.41,0,0,1-4.51,17.69,32,32,0,0,1-12.72,12.56,36.76,36.76,0,0,1-18.09,4.54,29.54,29.54,0,0,1-13-2.59,25.86,25.86,0,0,1-8.65-6.49,31.08,31.08,0,0,1-5-8A39.31,39.31,0,0,1,640,94.84Zm12.53-4.9a53.44,53.44,0,0,0,2.72,16.56q2.71,8.43,7.85,12.3a18.15,18.15,0,0,0,11.17,3.87,16.18,16.18,0,0,0,12.85-6.09q5.18-6.1,5.17-18.76a48.7,48.7,0,0,0-3.08-18.19q-3.09-7.65-7.85-10.8a18.76,18.76,0,0,0-10.54-3.15,16.6,16.6,0,0,0-13.22,5.9Q652.53,77.48,652.53,89.94Z"/><path d="M712.17,125.32v-3.84l6.23-.07a5,5,0,0,0,2.22-.49,3,3,0,0,0,1.16-1.1,11.5,11.5,0,0,0,.86-4.7q.08-.86.47-19V68.63q0-11.05-.4-22.84-.27-7.95-.73-8.88a1.82,1.82,0,0,0-1.06-.92q-1-.47-9.15-.47V31.61q15-1.84,20.81-4.63a3.48,3.48,0,0,1,1.33-.4.93.93,0,0,1,.73.3,1.23,1.23,0,0,1,.26.83,9,9,0,0,1-.13,1.32l-.07,2.19q-.33,11.85-.39,20.2l-.14,10.33V88.37l.73.4A100.35,100.35,0,0,0,745,81q4.44-3.78,20-18.28c3.4.13,5.57.2,6.49.2s3.12-.07,6.7-.2v3.71a26,26,0,0,0-4.91.53,31,31,0,0,0-5.5,3,159.44,159.44,0,0,0-15.31,11.46l-6.76,5.37q5.37,5.49,18.56,18.41,9.94,10.13,12,11.82a8.57,8.57,0,0,0,3.95,2,38.65,38.65,0,0,0,6,.33v3q-4.9.95-8.28,1.72c-2.26.52-4.84,1.14-7.76,1.86-1.5-1.26-3-2.54-4.37-3.86s-4.31-4.23-8.68-8.73Q743.59,99.61,734.9,91.86l-.73.33V96.1q.33,17.24.4,18.62a12.34,12.34,0,0,0,.8,4.84,2.72,2.72,0,0,0,.79,1,4.08,4.08,0,0,0,1.59.69c.31,0,2.76.11,7.36.2v3.84q-8.75-.52-15.84-.53Q722.37,124.79,712.17,125.32Z"/></svg>